<svg t="1606449873156" class="icon" viewBox="0 0 1024 1024" version="1.1" xmlns="http://www.w3.org/2000/svg" p-id="4157" width="16" height="16"><path d="M341.333305 469.376046a42.666663 42.666663 0 1 1 85.333326 0v255.914646a42.666663 42.666663 0 1 1-85.333326 0v-255.914646zM0 251.733398C0 225.809133 21.034665 204.800068 47.001596 204.800068h929.996723A47.001596 47.001596 0 0 1 1023.999915 251.733398c0 25.924265-21.034665 46.933329-47.001596 46.933329H47.001596A47.001596 47.001596 0 0 1 0 251.733398z m597.333284 217.642648a42.666663 42.666663 0 1 1 85.333326 0v255.914646a42.666663 42.666663 0 1 1-85.333326 0v-255.914646zM682.66661 204.800068V102.451277A17.066665 17.066665 0 0 0 665.625545 85.333412H358.37437A17.075199 17.075199 0 0 0 341.333305 102.451277V204.800068H255.999979V68.19848A68.181328 68.181328 0 0 1 324.258106 0.000085H699.733275C737.450605 0.000085 767.999936 30.549416 767.999936 68.19848V204.800068H682.66661z m-511.982891 819.199932a68.266661 68.266661 0 0 1-68.266661-68.241061V298.666727h85.333326v622.882082A17.066665 17.066665 0 0 0 204.76585 938.666674h614.468215a17.049599 17.049599 0 0 0 17.015465-17.117865V298.666727h85.333327v657.092212c0 37.69173-30.626131 68.241061-68.266661 68.241061H170.683719z" fill="#4990EE" p-id="4158"></path></svg>