<svg t="1606401710244" class="icon" viewBox="0 0 1024 1024" version="1.1" xmlns="http://www.w3.org/2000/svg" p-id="4261" width="16" height="16"><path d="M761.6 65.1c-14.7 2.1-25.3 10.6-35.9 25.3-71.8 59-122.4 130.8-151.8 217.2-10.6 14.7-14.7 27.4-10.6 42.2 0 12.7 10.6 25.3 25.3 38 2.1 0 2.1 0 6.3 2.1l97.1 33.7c-76 103.5-164.6 192-270 267.9l-33.7-97.1c0-2.1 0-4.2-2.1-6.3-10.6-14.7-23.2-25.3-37.9-25.3-12.7-4.2-27.4 0-42.2 10.6-84.4 29.5-158.1 80.2-215.2 151.8-14.7 10.6-23.2 21.1-25.3 35.9-4.3 12.6 0 27.4 12.7 44.3 0 0 2.1 2.1 2.1 4.2l177.1 145.5c4.2 2.1 6.3 2.1 10.6 4.3 2.1 0 6.3 0 10.6-2.1C605.7 830.7 831.3 603 957.9 276c2.1-2.1 2.1-4.2 2.1-6.3 0-6.3-2.1-10.6-4.2-12.7L810.1 82c-2.1-2.1-4.2-2.1-4.2-4.2C789 67.2 774.3 63 761.6 65.1z" p-id="4262" fill="#1296db"></path></svg>